<?xml version="1.0" standalone="no"?>
<!DOCTYPE svg PUBLIC "-//W3C//DTD SVG 1.1//EN" "http://www.w3.org/Graphics/SVG/1.1/DTD/svg11.dtd" >
<svg xmlns="http://www.w3.org/2000/svg">
<metadata></metadata>
<defs>
<font id="eriflex_regularregular" horiz-adv-x="1139" >
<font-face units-per-em="2048" ascent="1638" descent="-410" />
<missing-glyph horiz-adv-x="410" />
<glyph horiz-adv-x="2048" />
<glyph horiz-adv-x="2048" />
<glyph unicode="&#xd;" horiz-adv-x="597" />
<glyph unicode=" "  horiz-adv-x="410" />
<glyph unicode="&#x09;" horiz-adv-x="410" />
<glyph unicode="&#xa0;" horiz-adv-x="410" />
<glyph unicode="!" horiz-adv-x="682" d="M232 83q0 59 29 89t88 30q60 0 88.5 -28.5t28.5 -88.5q0 -59 -29.5 -88t-87.5 -29t-85 24q-32 28 -32 91zM240 1265q-1 16 14 57q12 34 94 34q78 0 90 -26q18 -41 16 -65l-67 -859h-79z" />
<glyph unicode="&#x22;" horiz-adv-x="726" d="M61 833l75 468q9 53 98 53q73 0 73 -38q0 -11 -5 -26l-173 -457h-68zM418 833l75 468q9 53 98 53q74 0 74 -37q0 -11 -6 -27l-173 -457h-68z" />
<glyph unicode="#" horiz-adv-x="1299" d="M90 491l22 112h227l67 313h-210l22 111h212l67 311h129l-67 -311h297l67 311h128l-67 -311h225l-23 -111h-226l-68 -313h210l-22 -112h-212l-66 -307h-128l66 307h-297l-67 -307h-128l67 307h-225zM467 603h297l68 313h-298z" />
<glyph unicode="$" horiz-adv-x="1037" d="M133 1036q0 119 95 210q99 96 251 106v145h94v-148q143 -15 272 -90v-177h-27q-111 120 -245 150v-471l70 -38q292 -158 292 -389q0 -145 -97 -243q-100 -100 -265 -113v-113h-94v115q-86 11 -177 47q-99 41 -149 91v194h27q113 -164 299 -208v522l-84 46 q-262 144 -262 364zM261 1076q0 -145 218 -263v430q-13 1 -27 1q-64 0 -123 -43q-68 -49 -68 -125zM573 91h24q82 0 142.5 56t60.5 128q0 163 -227 298v-482z" />
<glyph unicode="%" horiz-adv-x="1571" d="M143 1025q0 150 85 240t222 90q144 0 225.5 -85.5t81.5 -244.5q0 -147 -90 -240q-87 -89 -217 -89q-135 0 -221 91t-86 238zM245 1l919 1336h162l-919 -1336h-162zM308 1025q0 -122 20 -166q29 -67 122 -67q89 0 120 68q22 48 22 165q0 120 -21 167q-30 66 -121 66 q-89 0 -120 -66q-22 -48 -22 -167zM815 313q0 150 84.5 240t221.5 90q144 0 225.5 -86t81.5 -244q0 -148 -88.5 -239t-218.5 -91q-135 0 -220.5 91t-85.5 239zM980 312q0 -122 19 -166q29 -67 122 -67q89 0 120 68q22 49 22 165q0 121 -21 167q-30 66 -121 66 q-89 0 -120 -66q-21 -48 -21 -167z" />
<glyph unicode="&#x26;" horiz-adv-x="1343" d="M123 281q0 148 56 241q66 109 256 235q-156 185 -156 353q0 266 299 266q281 0 281 -273q0 -115 -80 -215q-64 -80 -161 -131l287 -323q21 45 45 250h162q-44 -225 -111 -358l260 -303l-2 -23h-206l-137 170q-91 -100 -146 -137q-113 -76 -260 -76q-176 0 -280 84 q-107 87 -107 240zM285 307q0 -93 65 -158q73 -72 199 -72q96 0 177.5 49.5t120.5 133.5l-344 413q-218 -121 -218 -366zM433 1110q0 -142 124 -272q149 75 149 252q0 188 -135 188q-138 0 -138 -168z" />
<glyph unicode="'" horiz-adv-x="369" d="M61 833l75 468q9 53 98 53q74 0 74 -37q0 -11 -6 -27l-173 -457h-68z" />
<glyph unicode="(" horiz-adv-x="706" d="M164 553q0 589 413 964h88q-169 -233 -228 -363q-116 -259 -116 -601q0 -325 108 -583q77 -184 236 -380h-88q-413 343 -413 963z" />
<glyph unicode=")" horiz-adv-x="716" d="M51 -410q156 190 233 371q111 262 111 592q0 318 -118 587q-64 145 -226 377h88q174 -151 284 -381q130 -271 130 -583q0 -620 -414 -963h-88z" />
<glyph unicode="*" horiz-adv-x="1034" d="M123 1237l42 145l324 -147l-44 347h146l-45 -346l317 146l48 -145l-349 -51l252 -270l-127 -94l-173 330l-176 -318l-120 94l254 262z" />
<glyph unicode="+" horiz-adv-x="942" d="M61 539v143h342v344h138v-344h340v-143h-340v-355h-138v355h-342z" />
<glyph unicode="," horiz-adv-x="389" d="M41 -283l75 468q8 53 98 53q73 0 73 -37q0 -11 -6 -27l-172 -457h-68z" />
<glyph unicode="-" horiz-adv-x="942" d="M123 539v143h696v-143h-696z" />
<glyph unicode="." horiz-adv-x="373" d="M72 83q0 59 28.5 89t88.5 30q59 0 88 -28.5t29 -88.5q0 -59 -29.5 -88t-87.5 -29q-59 0 -86 24q-31 28 -31 91z" />
<glyph unicode="/" horiz-adv-x="840" d="M61 2l583 1336h134l-582 -1336h-135z" />
<glyph unicode="0" horiz-adv-x="1090" d="M72 676q0 322 121 507q125 191 352 191t350 -178q123 -181 123 -520q0 -325 -128 -516t-345 -191q-226 0 -349.5 182.5t-123.5 524.5zM262 676q0 -594 283 -594q129 0 194 112q82 142 82 482q0 332 -82 472q-66 112 -194 112q-283 0 -283 -584z" />
<glyph unicode="1" horiz-adv-x="1090" d="M252 766v180l360 391h123v-1337h-182v1133l-287 -367h-14z" />
<glyph unicode="2" horiz-adv-x="1090" d="M135 0v117l445 483q188 205 188 363q0 144 -89 221q-79 67 -202 67q-100 0 -175 -56q-55 -41 -118 -132h-20v213q126 88 350 88q200 0 316 -97q124 -103 124 -296q0 -104 -78 -245t-210 -271l-318 -314h606v-141h-819z" />
<glyph unicode="3" horiz-adv-x="1090" d="M127 70v200l20 -2q135 -172 363 -172q111 0 183 61q79 67 79 185q0 270 -229 270h-207v133h188q94 0 149.5 65t55.5 177q0 125 -75 197q-66 63 -160 63q-163 0 -318 -137l-20 -4v184q114 72 342 72q184 0 293 -82q118 -89 118 -256q0 -243 -221 -324v-6 q122 -17 198.5 -111t76.5 -223q0 -202 -154 -303q-125 -82 -322 -82q-234 0 -360 95z" />
<glyph unicode="4" horiz-adv-x="1090" d="M72 348v172l532 819h227v-850h187v-141h-187v-348h-176v348h-583zM188 489h467v680h-22z" />
<glyph unicode="5" horiz-adv-x="1090" d="M127 70v184l20 18q151 -180 338 -180q287 0 287 307q0 299 -315 299q-140 0 -277 -88l-20 21v708h686v-143h-522v-416q67 33 204 33q192 0 303 -88q132 -105 132 -324q0 -206 -123 -318q-118 -108 -322 -108q-95 0 -200 22q-129 26 -191 73z" />
<glyph unicode="6" horiz-adv-x="1090" d="M115 584q0 310 22 413q46 212 161 297q87 64 234 64q223 0 342 -66v-172l-20 -16q-133 133 -285 133q-145 0 -205 -54q-73 -66 -73 -245v-231q47 104 297 104q174 0 274 -93q113 -105 113 -317q0 -203 -135 -325q-121 -109 -289 -109q-207 0 -307 111q-129 144 -129 506z M291 346q0 -137 77 -208q64 -60 162 -60q252 0 252 303q0 319 -262 319q-119 0 -229 -26v-328z" />
<glyph unicode="7" horiz-adv-x="1090" d="M96 1155v184h897v-34l-512 -1305h-192l491 1201h-473q-122 0 -186 -46h-25z" />
<glyph unicode="8" horiz-adv-x="1090" d="M106 313q0 294 267 369q-121 58 -171 136.5t-50 217.5q0 165 116 256q107 84 279 84q168 0 272 -75q119 -86 119 -252q0 -101 -63 -189q-69 -95 -177 -121q285 -121 285 -383q0 -200 -131 -303q-114 -90 -305 -90q-189 0 -309 86q-132 95 -132 264zM270 338 q0 -254 277 -254q117 0 189 59q83 66 83 193q0 118 -106 194q-91 66 -285 117q-158 -63 -158 -309zM307 1036q0 -112 81 -171q59 -43 233 -95q78 22 114 69q47 63 47 193q0 223 -247 223q-103 0 -164 -56q-64 -59 -64 -163z" />
<glyph unicode="9" horiz-adv-x="1090" d="M115 913q0 211 117 336q112 119 288 119q455 0 455 -491q0 -413 -23 -517q-45 -209 -191 -306q-112 -74 -265 -74q-185 0 -301 63v174l20 16q47 -55 121 -94q78 -41 143 -41q320 0 320 322v209q-47 -105 -277 -105q-407 0 -407 389zM307 934q0 -176 82 -246 q60 -51 180 -51q119 0 230 27v307q0 286 -258 286q-234 0 -234 -323z" />
<glyph unicode=":" horiz-adv-x="424" d="M123 83q0 59 28.5 89t88.5 30q59 0 88 -28.5t29 -88.5q0 -59 -29.5 -88t-87.5 -29q-59 0 -86 24q-31 28 -31 91zM123 756q0 58 28.5 88.5t88.5 30.5q59 0 88 -29t29 -88t-29.5 -88t-87.5 -29q-59 0 -86 24q-31 28 -31 91z" />
<glyph unicode=";" horiz-adv-x="435" d="M102 -283l75 468q8 53 98 53q73 0 73 -37q0 -11 -5 -27l-173 -457h-68zM133 756q0 58 28.5 88.5t88.5 30.5t88.5 -29t28.5 -88t-29.5 -88t-87.5 -29t-85 24q-32 28 -32 91z" />
<glyph unicode="&#x3c;" horiz-adv-x="942" d="M133 576v102l676 373v-164l-486 -259l486 -253v-164z" />
<glyph unicode="=" horiz-adv-x="942" d="M102 313v144h738v-144h-738zM102 764v143h738v-143h-738z" />
<glyph unicode="&#x3e;" horiz-adv-x="942" d="M133 170v164l487 253l-487 259v164l676 -373v-102z" />
<glyph unicode="?" horiz-adv-x="948" d="M178 1066v190q138 98 300 98q144 0 230 -60q101 -70 101 -211q0 -144 -205 -354q-141 -145 -156 -250l-10 -73h-67l-8 70q-2 19 -2 39q0 175 130 308q141 146 141 252q0 82 -54 125q-47 38 -119 38q-152 0 -261 -172h-20zM291 83q0 59 28.5 89t88.5 30q59 0 88 -28.5 t29 -88.5q0 -59 -29.5 -88t-87.5 -29q-59 0 -86 24q-31 28 -31 91z" />
<glyph unicode="@" horiz-adv-x="1805" d="M187 624q0 368 217 572q202 189 532 189q284 0 462 -135q221 -168 221 -514q0 -215 -102 -336q-88 -105 -214 -105q-161 0 -217 146q-28 -74 -103 -116q-64 -36 -131 -36q-119 0 -199 80q-86 86 -86 229q0 166 114 292q120 132 292 132q258 0 258 -235v-332q0 -78 78 -78 q71 0 116 78q50 84 50 233q0 586 -566 586q-265 0 -415.5 -172t-150.5 -467q0 -289 147.5 -461t402.5 -172q129 0 256 41q160 52 252 156l1 -164q-81 -63 -230 -101q-132 -32 -257 -32q-323 0 -514 169q-214 189 -214 553zM707 610q0 -120 63 -180q51 -49 129 -49 q46 0 109.5 36t76.5 77v325q0 129 -112 129q-58 0 -125 -41q-55 -33 -98 -123.5t-43 -173.5z" />
<glyph unicode="A" horiz-adv-x="1078" d="M41 26l409 1311h185l412 -1311l-12 -26h-175l-109 414h-415l-109 -414h-178zM367 526h356l-174 664h-18z" />
<glyph unicode="B" horiz-adv-x="1214" d="M156 0v1337h467q190 0 300 -81q118 -87 118 -254q0 -219 -218 -270q324 -38 324 -353q0 -178 -130 -282q-122 -97 -317 -97h-544zM332 133h407q122 0 171 65q44 58 44 197q0 267 -234 267h-388v-529zM332 780h383q151 0 151 211q0 210 -172 210h-362v-421z" />
<glyph unicode="C" horiz-adv-x="1149" d="M92 668q0 321 166 514q156 182 395 182q217 0 373 -85v-214h-20q-168 168 -371 168q-159 0 -250 -145q-94 -150 -94 -420q0 -300 113 -444q90 -113 232 -113q83 0 191 50q99 46 179 115h20v-193q-142 -108 -367 -108q-250 0 -406 186q-161 191 -161 507z" />
<glyph unicode="D" horiz-adv-x="1290" d="M156 0v1337h458q271 0 425 -166q163 -175 163 -503q0 -309 -152 -486q-155 -182 -432 -182h-462zM336 136h340q146 0 230 116q95 131 95 395q0 251 -81 396q-88 155 -252 155h-332v-1062z" />
<glyph unicode="E" horiz-adv-x="1055" d="M156 0v1337l776 1v-183l-20 -9q-60 67 -189 67h-389v-459h480v-123h-480v-506h389q127 0 189 70l20 -10v-185h-776z" />
<glyph unicode="F" horiz-adv-x="942" d="M156 0v1337l735 1v-187l-20 -9q-60 67 -189 67h-348v-455h480v-129h-480v-625h-178z" />
<glyph unicode="G" horiz-adv-x="1300" d="M92 668q0 324 172 517q164 185 422 185t414 -85v-222h-21q-61 81 -174 134q-105 50 -200 50q-416 0 -416 -579q0 -559 421 -559q268 0 268 160v332h-267v126h423l15 -9v-723h-34l-95 92q-151 -107 -348 -107q-278 0 -433 196q-147 185 -147 492z" />
<glyph unicode="H" horiz-adv-x="1317" d="M156 0v1337h180v-579h647v579h178v-1337h-178v575q0 31 -21 41q-24 11 -310 11q-272 0 -296 -12q-20 -9 -20 -40v-575h-180z" />
<glyph unicode="I" horiz-adv-x="489" d="M156 0v1337h178v-1337h-178z" />
<glyph unicode="J" horiz-adv-x="743" d="M41 23v210h20q84 -138 219 -138q40 0 77 30q44 36 44 93v1119h179v-981q0 -387 -347 -387q-109 0 -192 54z" />
<glyph unicode="K" horiz-adv-x="1185" d="M156 0v1337h178v-686l543 686h194v-21l-489 -553l573 -737v-26h-207l-467 662l-147 -160v-502h-178z" />
<glyph unicode="L" horiz-adv-x="922" d="M156 1v1337h178v-1211h327q129 0 190 68l19 -10v-185z" />
<glyph unicode="M" horiz-adv-x="1511" d="M156 0v1337h258l334 -1154h20l330 1154h258v-1337h-174v1118h-30l-298 -1118h-197l-301 1118h-26v-1118h-174z" />
<glyph unicode="N" horiz-adv-x="1202" d="M156 0v1348h61l694 -959v948h136v-1349h-60l-694 971v-959h-137z" />
<glyph unicode="O" horiz-adv-x="1359" d="M90 669q0 343 171 531q158 175 417 175q261 0 420 -175q171 -188 171 -531q0 -320 -160 -511t-431 -191q-279 0 -435 191q-153 187 -153 511zM288 649q0 -559 390 -559q391 0 391 559q0 594 -391 594q-390 0 -390 -594z" />
<glyph unicode="P" horiz-adv-x="1087" d="M156 0v1337h475q153 0 261 -86q128 -104 128 -295q0 -176 -111 -280q-101 -96 -252 -96h-327v-580h-174zM330 705h346q162 0 162 239q0 256 -162 256h-346v-495z" />
<glyph unicode="Q" horiz-adv-x="1397" d="M90 669q0 343 171 531q158 175 417 175q261 0 420 -175q171 -188 171 -531q0 -290 -158 -490l56 -32q67 -38 111 -38q32 0 55 19l19 -19v-91q0 -72 -87 -72q-59 0 -247 139q-146 -118 -340 -118q-279 0 -435 191q-153 187 -153 511zM288 649q0 -559 390 -559 q144 0 233 71l-80 55q-119 82 -119 181v82h19q46 -108 237 -217l19 -12q82 138 82 399q0 594 -391 594q-390 0 -390 -594z" />
<glyph unicode="R" horiz-adv-x="1125" d="M158 0v1337h475q153 0 261 -86q128 -104 128 -295q0 -162 -103 -261q-88 -85 -220 -100l395 -575v-20h-215l-347 580h-200v-580h-174zM332 705h325q89 0 131 45q52 56 52 194q0 256 -162 256h-346v-495z" />
<glyph unicode="S" horiz-adv-x="1017" d="M133 1015q0 138 107 242q111 108 275 108q199 0 330 -106v-197h-27q-169 182 -366 182q-62 0 -113 -43q-58 -48 -58 -125q0 -156 198 -264l164 -89q292 -158 292 -368q0 -162 -110 -269q-115 -110 -298 -110q-233 0 -374 142v211h27q159 -231 403 -231q82 0 139.5 52.5 t57.5 124.5q0 155 -231 282l-156 86q-260 143 -260 372z" />
<glyph unicode="T" horiz-adv-x="1107" d="M131 1147v191h904v-191l-19 -10q-68 76 -189 76h-148v-1213h-178v1213h-161q-122 0 -189 -76z" />
<glyph unicode="U" horiz-adv-x="1311" d="M156 414v923h178v-1022q0 -204 326 -204q317 0 317 204v1022h178v-923q0 -220 -145 -338q-132 -107 -350 -107q-504 0 -504 445z" />
<glyph unicode="V" horiz-adv-x="1110" d="M47 1338h182l312 -1166h12l310 1166h180l6 -14l-420 -1324h-178z" />
<glyph unicode="W" horiz-adv-x="1662" d="M57 1338h182l228 -1166h12l244 798h205l6 -15v-2l238 -781h12l228 1166h182l6 -16l-311 -1322h-194l-257 772h-30l-255 -772h-190z" />
<glyph unicode="X" horiz-adv-x="1204" d="M61 20l466 669l-440 630l6 19h207l312 -549l290 549h197l10 -22l-415 -626l469 -673l-8 -17h-204l-343 592l-341 -592h-197z" />
<glyph unicode="Y" horiz-adv-x="1030" d="M51 1306v31h198l262 -611h19l261 611h198v-25l-380 -682v-630h-178v614z" />
<glyph unicode="Z" horiz-adv-x="1014" d="M82 25l627 1189h-357q-136 0 -210 -82l-19 9v197h822l12 -28l-639 -1185h374q92 0 138 13q54 17 114 69l19 -7v-200h-866z" />
<glyph unicode="[" horiz-adv-x="731" d="M170 -410v1927h474v-111h-322v-1702h322v-114h-474z" />
<glyph unicode="\" horiz-adv-x="840" d="M61 1338h135l582 -1336h-134z" />
<glyph unicode="]" horiz-adv-x="731" d="M87 -296h323v1702h-323v111h475v-1927h-475v114z" />
<glyph unicode="^" horiz-adv-x="1071" d="M82 646l379 692h153l375 -692h-162l-282 567h-15l-286 -567h-162z" />
<glyph unicode="_" horiz-adv-x="1122" d="M0 -45h1122v-125h-1122v125z" />
<glyph unicode="`" horiz-adv-x="381" d="M68 1317q0 37 73 37q90 0 98 -53l75 -468h-68l-172 457q-6 16 -6 27z" />
<glyph unicode="a" horiz-adv-x="983" d="M61 233q0 342 450 342q166 0 193 -4l-2 66q-4 222 -202 222q-76 0 -181 -46q-109 -48 -169 -113h-17v197q145 78 377 78q175 0 261 -77q99 -88 99 -290v-608h-37l-79 90q-152 -115 -394 -115q-129 0 -212 69q-87 72 -87 189zM229 263q0 -188 188 -188q161 0 262 113 q28 31 28 73v185q-48 42 -177 42q-301 0 -301 -225z" />
<glyph unicode="b" horiz-adv-x="1096" d="M143 0v1338h170v-423q92 46 260 46q195 0 308 -113q125 -124 125 -368q0 -234 -108 -364q-114 -136 -333 -136q-189 0 -310 103l-74 -83h-38zM305 302q0 -60 30 -98q41 -52 120 -86q71 -30 132 -30q114 0 171 74q69 91 69 309q0 372 -234 372q-93 0 -194 -48 q-94 -45 -94 -76v-417z" />
<glyph unicode="c" horiz-adv-x="909" d="M76 479q0 255 136 385q118 111 310 111q186 0 297 -74v-195h-20q-58 60 -136 105q-82 47 -133 47q-276 0 -276 -379q0 -385 272 -385q57 0 134 36q84 39 139 98h20v-183q-147 -70 -295 -70q-448 0 -448 504z" />
<glyph unicode="d" horiz-adv-x="1059" d="M78 471q0 251 127 378q112 112 301 112q170 0 262 -46v423h168v-1338h-38l-73 83q-61 -52 -169 -80q-87 -23 -162 -23q-416 0 -416 491zM256 471q0 -383 236 -383q64 0 133 27q79 31 119 83q30 38 30 98v423q0 31 -94 76q-100 48 -194 48q-230 0 -230 -372z" />
<glyph unicode="e" horiz-adv-x="1018" d="M72 465q0 240 126 380q120 132 310 132q177 0 291 -121q117 -124 117 -327v-11q0 -92 -64 -92h-599q0 -151 56 -239q64 -99 188 -99q202 0 352 198h21v-189q-132 -122 -381 -122q-187 0 -298 121q-119 130 -119 369zM253 538q14 -3 228 -3q225 0 258 6v13q0 147 -64 232 q-65 85 -177 85q-120 0 -185 -98q-60 -89 -60 -235z" />
<glyph unicode="f" horiz-adv-x="647" d="M10 801v39l103 53q73 39 73 111v75q0 133 70 208q65 69 170 69q82 0 210 -59v-188h-23q-41 60 -111 102q-58 34 -89 34q-77 0 -77 -82q0 -7 1 -16l17 -221h232v-125h-217v-801h-170v801h-189z" />
<glyph unicode="g" horiz-adv-x="1038" d="M68 484q0 478 387 478q219 0 354 -66l68 69h38v-904q0 -471 -438 -471q-194 0 -295 87v182h20q151 -154 343 -154q101 0 157 65q50 59 50 157q0 12 -1 25l-8 139q-119 -91 -271 -91q-404 0 -404 484zM247 490q0 -381 242 -381q77 0 166 63q94 67 94 133v399q0 22 -26 53 q-20 24 -111 55q-96 33 -165 33q-200 0 -200 -355z" />
<glyph unicode="h" horiz-adv-x="1051" d="M143 0v1338h166v-422q123 51 278 51q341 0 341 -349v-618h-166v682q0 169 -159 169q-60 0 -166.5 -41.5t-131.5 -74.5v-735h-162z" />
<glyph unicode="i" horiz-adv-x="439" d="M109 1205q0 58 28.5 88.5t88.5 30.5q59 0 87.5 -29t28.5 -88t-29.5 -88t-86.5 -29q-59 0 -86 24q-31 28 -31 91zM137 0v944h166v-944h-166z" />
<glyph unicode="j" horiz-adv-x="463" d="M-113 -166h24q59 -128 161 -128q95 0 95 139v1100h168v-1041q0 -145 -77 -229.5t-203 -84.5q-103 0 -168 53v191zM134 1205q0 58 28.5 88.5t88.5 30.5q59 0 88 -29t29 -88t-29.5 -88t-87.5 -29q-59 0 -86 24q-31 28 -31 91z" />
<glyph unicode="k" horiz-adv-x="966" d="M143 0v1338h166v-812l389 418h181l6 -14l-343 -342l393 -571l-9 -17h-189l-308 497l-122 -113v-384h-164z" />
<glyph unicode="l" horiz-adv-x="441" d="M143 164v1174h168v-1158q0 -124 110 -157l-16 -23h-181q-81 0 -81 164z" />
<glyph unicode="m" horiz-adv-x="1473" d="M143 0v964h34l69 -84q139 83 301 83q146 0 228 -101q137 101 317 101q113 0 185 -79q77 -84 77 -227v-657h-168v688q0 164 -133 164q-59 0 -129 -51q-62 -46 -95 -102v-699h-165v680q0 70 -36 120q-39 52 -100 52q-58 0 -125 -43q-61 -40 -92 -89v-720h-168z" />
<glyph unicode="n" horiz-adv-x="1051" d="M143 0v964h38l65 -72q170 75 358 75q146 0 235 -90t89 -238v-639h-164v669q0 81 -42 131t-112 50q-63 0 -166 -37q-108 -40 -139 -80v-733h-162z" />
<glyph unicode="o" horiz-adv-x="1090" d="M78 475q0 238 122 368.5t342 130.5q219 0 342 -128q124 -131 124 -371q0 -236 -125 -372t-341 -136q-219 0 -341.5 135t-122.5 373zM256 473q0 -222 76 -312q65 -77 210 -77q142 0 207 75q79 91 79 314q0 215 -77 302q-66 76 -211 76q-142 0 -208 -76q-76 -88 -76 -302z " />
<glyph unicode="p" horiz-adv-x="1090" d="M143 -410v1363h38l74 -82q121 103 310 103q434 0 434 -491q0 -241 -129 -370q-115 -116 -297 -116q-174 0 -266 45v-452h-164zM305 294q0 -84 69 -122q121 -67 211 -67q238 0 238 373q0 381 -236 381q-77 0 -161 -45q-78 -41 -121 -99v-421z" />
<glyph unicode="q" horiz-adv-x="1057" d="M78 483q0 491 434 491q189 0 311 -103l73 82h38v-1363h-166v452q-92 -45 -264 -45q-182 0 -297 116q-129 129 -129 370zM254 478q0 -373 238 -373q91 0 211 67q69 38 69 122v421q-43 58 -121 99q-83 45 -161 45q-236 0 -236 -381z" />
<glyph unicode="r" horiz-adv-x="753" d="M72 925l6 20h134q45 0 65 -15t26 -60q1 -52 4 -114h6q100 193 265 193q83 0 114 -48v-172l-20 -10q-72 91 -182 91q-74 0 -130 -97q-48 -86 -48 -285v-428h-162v723q0 156 -78 202z" />
<glyph unicode="s" horiz-adv-x="812" d="M84 59v186h20q161 -162 325 -162q72 0 119 32q51 34 51 89q0 100 -133 168l-172 87q-205 105 -205 252q0 107 80 180q87 78 229 78q166 0 295 -97v-174h-20q-71 76 -166 120q-84 39 -154 39q-55 0 -85.5 -26.5t-30.5 -64.5q0 -84 125 -149l172 -90q225 -118 225 -291 q0 -115 -93 -186q-96 -75 -262 -75q-176 0 -320 84z" />
<glyph unicode="t" horiz-adv-x="688" d="M31 836v44q203 66 295 318h47v-253h211v-123h-213v-647q0 -87 63 -87q89 0 159 145h23v-197q-93 -62 -192 -62t-158 66t-59 185v611h-176z" />
<glyph unicode="u" horiz-adv-x="1034" d="M133 347v598h163v-630q0 -109 62 -169q56 -54 149 -54q113 0 187 73q53 52 53 130v650h162v-945h-37l-73 83q-140 -103 -324 -103q-342 0 -342 367z" />
<glyph unicode="v" horiz-adv-x="925" d="M41 928l6 16h174l239 -779h10l229 779h179l6 -15l-348 -929h-152z" />
<glyph unicode="w" horiz-adv-x="1333" d="M41 928l6 16h166l153 -779h10l211 759h178l194 -759h10l149 779h168l6 -15l-237 -929h-155l-229 743l-237 -743h-156z" />
<glyph unicode="x" horiz-adv-x="958" d="M20 20l370 468l-343 436l5 20h185l243 -353l228 353h178l10 -23l-338 -427l369 -477l-9 -17h-189l-263 397l-254 -397h-183z" />
<glyph unicode="y" horiz-adv-x="950" d="M41 932l5 12h184l245 -812h11l240 812h177l6 -13l-361 -964q-140 -377 -380 -377q-60 0 -93 22l20 190l21 5q46 -71 113 -71q58 0 111 52q54 56 54 123q0 70 -52 212z" />
<glyph unicode="z" horiz-adv-x="906" d="M72 25l500 806h-244q-135 0 -190 -61l-19 10v164h678l13 -29l-508 -802h257q110 0 140 7q40 9 92 54l18 -6v-168h-723z" />
<glyph unicode="{" horiz-adv-x="804" d="M61 472v95q76 4 138 80q59 72 59 144v487q0 114 59 178.5t164 64.5h241v-111h-199q-113 0 -113 -134v-442q0 -210 -194 -307v-13q89 -17 144 -114q50 -87 50 -187v-378q0 -75 27 -103t86 -28h199v-114h-238q-104 0 -165 64.5t-61 176.5v415q0 73 -57 146q-62 80 -140 80z " />
<glyph unicode="|" horiz-adv-x="569" d="M225 -410v1932h118v-1932h-118z" />
<glyph unicode="}" horiz-adv-x="804" d="M82 -296h199q60 0 86.5 28t26.5 103v378q0 100 50 187q56 97 144 114v13q-194 97 -194 307v442q0 134 -113 134h-199v111h241q105 0 164 -64.5t59 -178.5v-487q0 -72 59 -144q62 -76 138 -80v-95q-78 0 -140 -80q-57 -73 -57 -146v-415q0 -112 -61 -176.5t-165 -64.5 h-238v114z" />
<glyph unicode="~" horiz-adv-x="1241" d="M156 462q-3 30 8 50q51 92 95 130q59 50 144 50q57 0 106 -21q23 -10 87 -40l126 -59q63 -29 118 -29q142 0 229 153q21 -15 21 -39q0 -18 -13 -47q-78 -174 -239 -174q-67 0 -234 86q-125 64 -188 64q-158 0 -244 -164q-13 11 -16 40z" />
<glyph unicode="&#xa1;" horiz-adv-x="682" d="M232 -79l52 776h116l55 -776v-325h-223v325zM240 857v205h207v-205h-207z" />
<glyph unicode="&#xa2;" d="M107 526q0 369 234 497q117 64 237 64q36 0 100 -8l113 387l110 -32l-112 -387q184 -80 226 -297l-175 -27q-26 112 -96 171l-222 -766q33 -9 61 -9q114 0 188 80q68 73 84 190l179 -20q-32 -178 -149 -285q-121 -112 -299 -112q-49 0 -103 14l-118 -395l-112 32l115 398 q-261 124 -261 505zM292 535q0 -266 123 -358l223 763q-32 3 -50 3q-191 0 -260 -186q-36 -97 -36 -222z" />
<glyph unicode="&#xa3;" d="M27 145q230 127 230 392q0 61 -17 124h-196v148h154q-51 173 -51 264q0 209 154 325q123 93 300 93q183 0 299.5 -99.5t143.5 -279.5l-179 -27q-14 113 -83 184q-73 74 -185 74q-107 0 -181 -68q-77 -70 -77 -176q0 -111 57 -290h315v-148h-284q19 -44 19 -88 q0 -193 -178 -382q79 22 144 22q82 0 187 -25q171 -41 233 -41q74 0 192 56l58 -165q-149 -63 -243 -63q-42 0 -85 8q-123 40 -262 74q-33 8 -94 8q-157 0 -302 -93z" />
<glyph unicode="&#xa4;" d="M74 354l139 136q-71 110 -71 236q0 125 71 235l-139 136l115 119l139 -139q106 72 237 72q132 0 237 -72l139 139l116 -119l-139 -136q71 -110 71 -235q0 -126 -71 -236l139 -136l-116 -119l-139 140q-105 -73 -237 -73q-131 0 -237 73l-139 -140zM305 726 q0 -109 75 -184.5t184 -75.5t184 75.5t75 184.5t-75 184t-184 75t-184 -75t-75 -184z" />
<glyph unicode="&#xa5;" d="M-3 1466h200l290 -516q49 -86 76 -154q26 60 82 163l274 507h214l-405 -711h341v-148h-412v-143h412v-139h-412v-325h-180v325h-415v139h415v143h-415v148h341z" />
<glyph unicode="&#xa6;" horiz-adv-x="532" d="M188 360h157v-791h-157v791zM188 701v790h157v-790h-157z" />
<glyph unicode="&#xa7;" d="M81 644q0 101 64 179q61 75 161 104q-129 124 -129 248q0 144 113 234q104 82 252 82q375 0 418 -347l-187 -19q-38 218 -215 218q-77 0 -137 -40q-68 -46 -68 -119q0 -52 36 -96q55 -67 306 -220q159 -97 212 -141q138 -115 138 -263q0 -113 -73 -193q-42 -46 -154 -93 q159 -121 159 -281q0 -95 -53 -171.5t-141 -115.5q-93 -41 -203 -41q-184 0 -296 89q-118 93 -141 272l181 26q26 -119 79 -173q61 -62 176 -62q87 0 148 43q69 48 69 131q0 51 -36 94q-62 75 -340 245q-125 77 -170 112q-169 133 -169 298zM244 664q0 -86 90 -164 q43 -38 163 -108q133 -79 231 -148q147 75 147 187q0 82 -105 171q-51 44 -172 118q-138 85 -204 138q-150 -85 -150 -194z" />
<glyph unicode="&#xa8;" horiz-adv-x="682" d="M61 1270v205h188v-205h-188zM434 1270v205h188v-205h-188z" />
<glyph unicode="&#xa9;" horiz-adv-x="1509" d="M3 736q0 204 103.5 383.5t282 275.5t369.5 96q201 0 378.5 -101t274.5 -275q101 -181 101 -379q0 -202 -101 -378q-102 -179 -277 -276q-181 -100 -376 -100q-203 0 -380 101.5t-275 277.5q-100 180 -100 375zM128 736q0 -169 85 -316t232 -229q151 -84 313 -84 q169 0 317 85.5t230 233t82 310.5q0 170 -86 319.5t-235 230t-308 80.5q-168 0 -316 -84t-229 -230q-85 -152 -85 -316zM363 734q0 273 193 377q91 49 211 49q272 0 341 -236l-119 -29q-62 153 -226 153q-131 0 -201 -96q-63 -85 -63 -221q0 -134 58 -216q66 -94 195 -94 q91 0 158.5 52.5t89.5 140.5l123 -36q-31 -130 -132 -203q-97 -71 -232 -71q-189 0 -295 123q-101 116 -101 307z" />
<glyph unicode="&#xaa;" horiz-adv-x="758" d="M47 965q0 146 145 193q35 11 99 21l147 22q40 6 96 20q-1 58 -9 80q-26 73 -148 73q-147 0 -166 -125l-137 34q14 107 109 162q79 46 196 46q300 0 299 -242l-1 -301q0 -133 41 -184h-148q-20 40 -22 89q-122 -107 -256 -107q-106 0 -173 56q-72 59 -72 163zM196 965 q0 -99 130 -99q68 0 123.5 36t75.5 99q7 22 8 103q-55 -14 -192 -36q-145 -23 -145 -103z" />
<glyph unicode="&#xab;" d="M134 528l319 456h148l-261 -456l259 -456h-146zM526 528l313 456h152l-264 -456l264 -456h-152z" />
<glyph unicode="&#xac;" horiz-adv-x="1196" d="M114 862v168h968v-606h-170v438h-798z" />
<glyph unicode="&#xad;" horiz-adv-x="942" d="M123 539v143h696v-143h-696z" />
<glyph unicode="&#xae;" horiz-adv-x="1509" d="M3 736q0 204 103.5 383.5t282 275.5t369.5 96q201 0 378.5 -101t274.5 -275q101 -181 101 -379q0 -202 -101 -378q-102 -179 -277 -276q-181 -100 -376 -100q-203 0 -380 101.5t-275 277.5q-100 180 -100 375zM128 736q0 -169 85 -316t232 -229q151 -84 313 -84 q169 0 317 85.5t230 233t82 310.5q0 170 -86 319.5t-235 230t-308 80.5q-168 0 -316 -84t-229 -230q-85 -152 -85 -316zM427 319v812h279q118 0 170 -12q78 -18 127.5 -74t49.5 -134q0 -97 -69 -161q-65 -61 -163 -68q43 -18 69 -43q51 -51 120 -161l99 -159h-160l-72 128 q-84 149 -137 189q-37 28 -105 28h-77v-345h-131zM558 776h159q197 0 197 124q0 77 -75 107q-35 14 -132 14h-149v-245z" />
<glyph unicode="&#xaf;" horiz-adv-x="1131" d="M-31 1566v129h1193v-129h-1193z" />
<glyph unicode="&#xb0;" horiz-adv-x="819" d="M128 1214q0 116 80.5 196.5t196.5 80.5q117 0 197.5 -80t80.5 -197t-80.5 -197.5t-197.5 -80.5t-197 80.5t-80 197.5zM237 1214q0 -70 49.5 -119.5t119.5 -49.5t119 49t49 120t-49 120t-119 49t-119.5 -49.5t-49.5 -119.5z" />
<glyph unicode="&#xb1;" horiz-adv-x="1124" d="M78 0v168h968v-168h-968zM78 663v167h399v399h170v-399h399v-167h-399v-403h-170v403h-399z" />
<glyph unicode="&#xb2;" horiz-adv-x="682" d="M25 733q14 131 254 305q146 106 171 134q37 41 37 84q0 110 -138 110q-67 0 -99.5 -25t-52.5 -89l-151 16q56 216 306 216q118 0 195 -42q97 -53 97 -161q0 -85 -59 -159q-42 -53 -205 -171q-80 -58 -118 -97h386v-121h-623z" />
<glyph unicode="&#xb3;" horiz-adv-x="682" d="M33 929l146 15q20 -60 52 -82q43 -30 102 -30q64 0 108 34q49 37 49 99q0 110 -159 110q-9 0 -27.5 -1.5t-27.5 -1.5l22 110q156 -2 156 102q0 89 -119 89q-102 0 -142 -102l-143 23q42 107 106 148.5t180 41.5q275 0 275 -187q0 -121 -138 -160q173 -43 173 -191 q0 -114 -99 -177q-84 -54 -205 -54q-265 0 -309 214z" />
<glyph unicode="&#xb4;" horiz-adv-x="682" d="M222 1194l133 280h236l-220 -280h-149z" />
<glyph unicode="&#xb5;" horiz-adv-x="1180" d="M160 -407v1469h178v-450q0 -186 7 -233q36 -241 238 -241q173 0 232 158q26 70 26 313v453h177v-1062h-161v126q-52 -80 -103 -110q-70 -41 -163 -41q-83 0 -147 33q-48 25 -106 99v-514h-178z" />
<glyph unicode="&#xb6;" horiz-adv-x="1100" d="M1 1044q0 211 134 321q124 101 339 101h633v-173h-144v-1700h-170v1700h-223v-1700h-165v1045q-182 10 -291 116q-113 109 -113 290z" />
<glyph unicode="&#xb7;" horiz-adv-x="682" d="M497 637v205h205v-205h-205z" />
<glyph unicode="&#xb8;" horiz-adv-x="682" d="M107 -409l11 117q64 -4 94 -4q161 0 161 75q0 39 -54 56q-32 10 -103 11l52 177h134l-33 -107q171 -20 171 -147q0 -99 -101 -150q-79 -40 -188 -40q-82 0 -144 12z" />
<glyph unicode="&#xb9;" horiz-adv-x="682" d="M107 1174v123q156 50 261 187h108v-751h-145v554q-102 -81 -224 -113z" />
<glyph unicode="&#xba;" horiz-adv-x="748" d="M45 1111q0 165 80 267q88 113 248 113q159 0 247 -111q81 -102 81 -265q0 -160 -82 -263q-88 -112 -245 -112q-159 0 -247 109q-82 100 -82 262zM193 1115q0 -243 180 -243t180 248q0 238 -180 238t-180 -243z" />
<glyph unicode="&#xbb;" d="M140 72l264 456l-264 456h151l314 -456l-314 -456h-151zM530 984h148l319 -456l-319 -456h-147l260 456z" />
<glyph unicode="&#xbc;" horiz-adv-x="1708" d="M107 1174v123q156 50 261 187h108v-751h-145v554q-102 -81 -224 -113zM252 -57l1102 1548h156l-1101 -1548h-157zM1047 123v123l405 474h122v-489h104v-108h-104v-154h-144v154h-383zM1200 231h230v263z" />
<glyph unicode="&#xbd;" horiz-adv-x="1708" d="M107 1174v123q156 50 261 187h108v-751h-145v554q-102 -81 -224 -113zM228 -57l1101 1548h157l-1101 -1548h-157zM1049 -31q14 125 233 282q145 103 192 157q37 42 37 84q0 109 -138 109q-66 0 -99 -24.5t-53 -88.5l-151 15q56 217 306 217q118 0 195 -42q97 -53 97 -161 q0 -85 -59 -159q-44 -56 -204 -172q-84 -61 -119 -96h386v-121h-623z" />
<glyph unicode="&#xbe;" horiz-adv-x="1708" d="M33 929l146 15q20 -60 52 -82q43 -30 102 -30q64 0 108 34q49 37 49 99q0 113 -156 110q-25 0 -38 -1l-20 -2l22 110q156 -2 156 102q0 89 -119 89q-102 0 -142 -102l-143 23q42 107 106 148.5t180 41.5q275 0 275 -187q0 -121 -138 -160q173 -43 173 -191 q0 -114 -99 -177q-84 -54 -205 -54q-265 0 -309 214zM252 -57l1101 1548h157l-1101 -1548h-157zM1047 123v123l404 474h123v-489h104v-108h-104v-154h-145v154h-382zM1200 231h229v263z" />
<glyph unicode="&#xbf;" horiz-adv-x="1251" d="M158 -29q0 112 66 210q45 67 154 163q73 64 94 89q47 54 62 112q12 45 14 156h173q1 -34 1 -51q0 -183 -101 -304q-25 -30 -133 -126q-72 -64 -100 -103q-45 -63 -45 -134q0 -114 84 -189t199 -75q246 0 293 296l184 -21q-25 -202 -148 -312.5t-326 -110.5 q-194 0 -326 101q-145 111 -145 299zM528 857v205h205v-205h-205z" />
<glyph unicode="&#xc0;" horiz-adv-x="1366" d="M42 26l409 1311h185l412 -1311l-12 -26h-175l-109 414h-415l-109 -414h-178zM368 526h356l-174 664h-18zM428 1679q0 37 73 37q90 0 98 -53l75 -468h-68l-172 457q-6 16 -6 27z" />
<glyph unicode="&#xc1;" horiz-adv-x="1366" d="M42 26l409 1311h185l412 -1311l-12 -26h-175l-109 414h-415l-109 -414h-178zM368 526h356l-174 664h-18zM542 1556l133 280h236l-220 -280h-149z" />
<glyph unicode="&#xc2;" horiz-adv-x="1366" d="M42 26l409 1311h185l412 -1311l-12 -26h-175l-109 414h-415l-109 -414h-178zM346 1556l216 280h192l225 -280h-204l-110 170l-113 -170h-206zM368 526h356l-174 664h-18z" />
<glyph unicode="&#xc3;" horiz-adv-x="1366" d="M42 26l409 1311h185l412 -1311l-12 -26h-175l-109 414h-415l-109 -414h-178zM350 1556q-1 97 52 160q56 68 151 68q62 0 169 -54q59 -30 94 -30q61 0 73 87h130q-6 -228 -196 -228q-63 0 -166 56q-67 36 -98 36q-78 0 -76 -95h-133zM368 526h356l-174 664h-18z" />
<glyph unicode="&#xc4;" horiz-adv-x="1366" d="M42 26l409 1311h185l412 -1311l-12 -26h-175l-109 414h-415l-109 -414h-178zM368 526h356l-174 664h-18zM380 1556v205h188v-205h-188zM753 1556v205h188v-205h-188z" />
<glyph unicode="&#xc5;" horiz-adv-x="1366" d="M42 26l409 1311h185l412 -1311l-12 -26h-175l-109 414h-415l-109 -414h-178zM368 526h356l-174 664h-18zM482 1601q0 74 53 126.5t127 52.5q76 0 128 -53.5t52 -129.5t-51.5 -129.5t-127.5 -53.5q-78 0 -129.5 54t-51.5 133zM558 1600q0 -45 30.5 -78t75.5 -33 q44 0 75 32.5t31 76.5q0 45 -30.5 77t-75.5 32q-44 0 -75 -31.5t-31 -75.5z" />
<glyph unicode="&#xc6;" horiz-adv-x="2048" d="M1 0l705 1466h1203v-173h-737v-451h685v-172h-685v-497h764v-173h-959v423h-566l-200 -423h-210zM493 595h484v698h-145z" />
<glyph unicode="&#xc7;" horiz-adv-x="1479" d="M113 668q0 321 166 514q156 182 395 182q217 0 373 -85v-214h-20q-168 168 -371 168q-159 0 -250 -145q-94 -150 -94 -420q0 -300 113 -444q90 -113 232 -113q83 0 191 50q99 46 179 115h20v-193q-142 -108 -367 -108q-250 0 -406 186q-161 191 -161 507zM532 -409 l11 117q64 -4 94 -4q161 0 161 75q0 39 -54 56q-32 10 -103 11l52 177h134l-33 -107q171 -20 171 -147q0 -99 -101 -150q-79 -40 -188 -40q-82 0 -144 12z" />
<glyph unicode="&#xc8;" horiz-adv-x="1366" d="M143 0v1337l776 1v-183l-20 -9q-60 67 -189 67h-389v-459h480v-123h-480v-506h389q127 0 189 70l20 -10v-185h-776zM440 1679q0 37 73 37q90 0 98 -53l75 -468h-68l-172 457q-6 16 -6 27z" />
<glyph unicode="&#xc9;" horiz-adv-x="1366" d="M143 0v1337l776 1v-183l-20 -9q-60 67 -189 67h-389v-459h480v-123h-480v-506h389q127 0 189 70l20 -10v-185h-776zM549 1556l133 280h236l-220 -280h-149z" />
<glyph unicode="&#xca;" horiz-adv-x="1366" d="M143 0v1337l776 1v-183l-20 -9q-60 67 -189 67h-389v-459h480v-123h-480v-506h389q127 0 189 70l20 -10v-185h-776zM375 1556l216 280h192l225 -280h-204l-110 170l-113 -170h-206z" />
<glyph unicode="&#xcb;" horiz-adv-x="1366" d="M143 0v1337l776 1v-183l-20 -9q-60 67 -189 67h-389v-459h480v-123h-480v-506h389q127 0 189 70l20 -10v-185h-776zM412 1556v205h188v-205h-188zM785 1556v205h188v-205h-188z" />
<glyph unicode="&#xcc;" horiz-adv-x="569" d="M-90 1679q0 37 73 37q90 0 98 -53l75 -468h-68l-172 457q-6 16 -6 27zM33 0v1337h178v-1337h-178z" />
<glyph unicode="&#xcd;" horiz-adv-x="569" d="M72 1556l133 280h236l-220 -280h-149zM87 0v1337h178v-1337h-178z" />
<glyph unicode="&#xce;" horiz-adv-x="569" d="M-32 1556l216 280h192l225 -280h-204l-110 170l-113 -170h-206zM156 0v1337h178v-1337h-178z" />
<glyph unicode="&#xcf;" horiz-adv-x="569" d="M4 1556v205h188v-205h-188zM156 0v1337h178v-1337h-178zM377 1556v205h188v-205h-188z" />
<glyph unicode="&#xd0;" horiz-adv-x="1479" d="M-3 667v132h161v667h506q170 0 260 -21q280 -65 389 -355q57 -151 57 -349q0 -181 -53 -339q-104 -310 -416 -385q-71 -17 -214 -17h-529v667h-161zM352 173h313q256 0 358 102q147 147 147 468q0 301 -139 440q-72 72 -172 95q-64 15 -199 15h-308v-494h404v-132h-404 v-494z" />
<glyph unicode="&#xd1;" horiz-adv-x="1479" d="M143 0v1348h61l694 -959v948h136v-1349h-60l-694 971v-959h-137zM417 1556q-1 97 52 160q56 68 151 68q62 0 169 -54q59 -30 94 -30q61 0 73 87h130q-6 -228 -196 -228q-63 0 -166 56q-67 36 -98 36q-78 0 -76 -95h-133z" />
<glyph unicode="&#xd2;" horiz-adv-x="1593" d="M113 669q0 343 171 531q158 175 417 175q261 0 420 -175q171 -188 171 -531q0 -320 -160 -511t-431 -191q-279 0 -435 191q-153 187 -153 511zM311 649q0 -559 390 -559q391 0 391 559q0 594 -391 594q-390 0 -390 -594zM542 1679q0 37 73 37q90 0 98 -53l75 -468h-68 l-172 457q-6 16 -6 27z" />
<glyph unicode="&#xd3;" horiz-adv-x="1593" d="M113 669q0 343 171 531q158 175 417 175q261 0 420 -175q171 -188 171 -531q0 -320 -160 -511t-431 -191q-279 0 -435 191q-153 187 -153 511zM311 649q0 -559 390 -559q391 0 391 559q0 594 -391 594q-390 0 -390 -594zM700 1556l133 280h236l-220 -280h-149z" />
<glyph unicode="&#xd4;" horiz-adv-x="1593" d="M113 669q0 343 171 531q158 175 417 175q261 0 420 -175q171 -188 171 -531q0 -320 -160 -511t-431 -191q-279 0 -435 191q-153 187 -153 511zM311 649q0 -559 390 -559q391 0 391 559q0 594 -391 594q-390 0 -390 -594zM502 1556l216 280h192l225 -280h-204l-110 170 l-113 -170h-206z" />
<glyph unicode="&#xd5;" horiz-adv-x="1593" d="M113 669q0 343 171 531q158 175 417 175q261 0 420 -175q171 -188 171 -531q0 -320 -160 -511t-431 -191q-279 0 -435 191q-153 187 -153 511zM311 649q0 -559 390 -559q391 0 391 559q0 594 -391 594q-390 0 -390 -594zM489 1556q-1 97 52 160q56 68 151 68 q62 0 169 -54q59 -30 94 -30q61 0 73 87h130q-6 -228 -196 -228q-63 0 -166 56q-67 36 -98 36q-78 0 -76 -95h-133z" />
<glyph unicode="&#xd6;" horiz-adv-x="1593" d="M113 669q0 343 171 531q158 175 417 175q261 0 420 -175q171 -188 171 -531q0 -320 -160 -511t-431 -191q-279 0 -435 191q-153 187 -153 511zM311 649q0 -559 390 -559q391 0 391 559q0 594 -391 594q-390 0 -390 -594zM539 1556v205h188v-205h-188zM912 1556v205h188 v-205h-188z" />
<glyph unicode="&#xd7;" horiz-adv-x="1196" d="M161 409l315 315l-314 314l122 122l314 -314l313 313l120 -121l-312 -313l314 -314l-122 -122l-314 314l-315 -315z" />
<glyph unicode="&#xd8;" horiz-adv-x="1593" d="M83 25l176 197q-92 141 -126 240q-38 112 -38 268q0 213 81 384q89 190 262 286q163 91 361 91q241 0 451 -159l168 188l99 -84l-176 -198q85 -128 116 -224q40 -126 40 -282q0 -213 -82 -383q-90 -189 -264 -284q-164 -90 -350 -90q-138 0 -250 39q-86 30 -201 115 l-168 -188zM295 733q0 -114 22 -206q16 -69 67 -165l746 835q-88 69 -153 96q-77 32 -177 32q-252 0 -386 -175q-119 -157 -119 -417zM469 262q77 -63 142 -88q85 -33 184 -33q244 0 379 176q123 159 123 410q0 208 -85 367z" />
<glyph unicode="&#xd9;" horiz-adv-x="1479" d="M143 414v923h178v-1022q0 -204 326 -204q317 0 317 204v1022h178v-923q0 -220 -145 -338q-132 -107 -350 -107q-504 0 -504 445zM444 1679q0 37 73 37q90 0 98 -53l75 -468h-68l-172 457q-6 16 -6 27z" />
<glyph unicode="&#xda;" horiz-adv-x="1479" d="M143 414v923h178v-1022q0 -204 326 -204q317 0 317 204v1022h178v-923q0 -220 -145 -338q-132 -107 -350 -107q-504 0 -504 445zM601 1556l133 280h236l-220 -280h-149z" />
<glyph unicode="&#xdb;" horiz-adv-x="1479" d="M143 414v923h178v-1022q0 -204 326 -204q317 0 317 204v1022h178v-923q0 -220 -145 -338q-132 -107 -350 -107q-504 0 -504 445zM404 1556l216 280h192l225 -280h-204l-110 170l-113 -170h-206z" />
<glyph unicode="&#xdc;" horiz-adv-x="1479" d="M143 414v923h178v-1022q0 -204 326 -204q317 0 317 204v1022h178v-923q0 -220 -145 -338q-132 -107 -350 -107q-504 0 -504 445zM441 1556v205h188v-205h-188zM814 1556v205h188v-205h-188z" />
<glyph unicode="&#xdd;" horiz-adv-x="1366" d="M72 1306v31h198l262 -611h19l261 611h198v-25l-380 -682v-630h-178v614zM576 1556l133 280h236l-220 -280h-149z" />
<glyph unicode="&#xde;" horiz-adv-x="1366" d="M158 0v1466h194v-298h359q145 0 224 -14q214 -38 298 -211q44 -91 44 -200q0 -445 -549 -445h-376v-298h-194zM352 471h379q346 0 346 266q0 196 -168 244q-49 14 -182 14h-375v-524z" />
<glyph unicode="&#xdf;" horiz-adv-x="1251" d="M153 0v999q0 160 32 250q43 120 157 184q103 58 238 58q143 0 249 -70q122 -81 122 -217q0 -95 -82 -239q-70 -123 -70 -168q0 -67 143 -160q136 -88 181 -143q64 -77 64 -182q0 -150 -109 -246q-104 -91 -256 -91q-121 0 -217.5 64.5t-145.5 176.5l155 72 q89 -165 205 -165q74 0 129 50t55 124q0 56 -32 96q-20 25 -112 88q-119 81 -158 119q-87 84 -87 169q0 72 79 207q83 142 83 210q0 74 -65 118q-58 39 -135 39q-147 0 -203 -109q-40 -78 -40 -243v-991h-180z" />
<glyph unicode="&#xe0;" d="M61 233q0 342 450 342q166 0 193 -4l-2 66q-4 222 -202 222q-76 0 -181 -46q-109 -48 -169 -113h-17v197q145 78 377 78q175 0 261 -77q99 -88 99 -290v-608h-37l-79 90q-152 -115 -394 -115q-129 0 -212 69q-87 72 -87 189zM229 263q0 -188 188 -188q161 0 262 113 q28 31 28 73v185q-48 42 -177 42q-301 0 -301 -225zM318 1317q0 37 73 37q90 0 98 -53l75 -468h-68l-172 457q-6 16 -6 27z" />
<glyph unicode="&#xe1;" d="M61 233q0 342 450 342q166 0 193 -4l-2 66q-4 222 -202 222q-76 0 -181 -46q-109 -48 -169 -113h-17v197q145 78 377 78q175 0 261 -77q99 -88 99 -290v-608h-37l-79 90q-152 -115 -394 -115q-129 0 -212 69q-87 72 -87 189zM229 263q0 -188 188 -188q161 0 262 113 q28 31 28 73v185q-48 42 -177 42q-301 0 -301 -225zM463 1194l133 280h236l-220 -280h-149z" />
<glyph unicode="&#xe2;" d="M61 233q0 342 450 342q166 0 193 -4l-2 66q-4 222 -202 222q-76 0 -181 -46q-109 -48 -169 -113h-17v197q145 78 377 78q175 0 261 -77q99 -88 99 -290v-608h-37l-79 90q-152 -115 -394 -115q-129 0 -212 69q-87 72 -87 189zM229 263q0 -188 188 -188q161 0 262 113 q28 31 28 73v185q-48 42 -177 42q-301 0 -301 -225zM247 1194l216 280h192l225 -280h-204l-110 170l-113 -170h-206z" />
<glyph unicode="&#xe3;" d="M61 233q0 342 450 342q166 0 193 -4l-2 66q-4 222 -202 222q-76 0 -181 -46q-109 -48 -169 -113h-17v197q145 78 377 78q175 0 261 -77q99 -88 99 -290v-608h-37l-79 90q-152 -115 -394 -115q-129 0 -212 69q-87 72 -87 189zM229 263q0 -188 188 -188q161 0 262 113 q28 31 28 73v185q-48 42 -177 42q-301 0 -301 -225zM229 1219q-1 97 52 160q56 68 151 68q62 0 169 -54q59 -30 94 -30q61 0 73 87h130q-6 -228 -196 -228q-63 0 -166 56q-67 36 -98 36q-78 0 -76 -95h-133z" />
<glyph unicode="&#xe4;" d="M61 233q0 342 450 342q166 0 193 -4l-2 66q-4 222 -202 222q-76 0 -181 -46q-109 -48 -169 -113h-17v197q145 78 377 78q175 0 261 -77q99 -88 99 -290v-608h-37l-79 90q-152 -115 -394 -115q-129 0 -212 69q-87 72 -87 189zM229 263q0 -188 188 -188q161 0 262 113 q28 31 28 73v185q-48 42 -177 42q-301 0 -301 -225zM283 1270v205h188v-205h-188zM656 1270v205h188v-205h-188z" />
<glyph unicode="&#xe5;" d="M61 233q0 342 450 342q166 0 193 -4l-2 66q-4 222 -202 222q-76 0 -181 -46q-109 -48 -169 -113h-17v197q145 78 377 78q175 0 261 -77q99 -88 99 -290v-608h-37l-79 90q-152 -115 -394 -115q-129 0 -212 69q-87 72 -87 189zM229 263q0 -188 188 -188q161 0 262 113 q28 31 28 73v185q-48 42 -177 42q-301 0 -301 -225zM383 1338q0 74 53 126.5t127 52.5q76 0 128 -53.5t52 -129.5t-51.5 -129.5t-127.5 -53.5q-78 0 -129.5 54t-51.5 133zM459 1337q0 -45 30.5 -78t75.5 -33q44 0 75 32.5t31 76.5q0 45 -30.5 77t-75.5 32q-44 0 -75 -31.5 t-31 -75.5z" />
<glyph unicode="&#xe6;" horiz-adv-x="1821" d="M68 280q0 194 189 277q87 38 281 63q151 20 252 49q1 25 1 41q0 127 -54 177t-182 50q-176 0 -235 -80q-29 -39 -48 -124l-175 21q53 222 231 293q98 39 229 39q167 0 269 -50q59 -29 99 -93q131 143 341 143q314 0 423 -286q49 -129 49 -254q0 -19 -2 -61h-767 q2 -120 25 -182q31 -83 118 -135q74 -44 161 -44q216 0 273 225l188 -24q-104 -349 -468 -349q-246 0 -395 198q-202 -198 -440 -198q-151 0 -251 75q-112 83 -112 229zM259 286q0 -83 64 -128q56 -40 143 -40q105 0 190 50q94 54 122 149q15 50 15 216q-79 -34 -322 -73 q-110 -17 -153 -51q-59 -46 -59 -123zM969 633h584q-27 304 -288 304q-135 0 -213 -86q-74 -81 -83 -218z" />
<glyph unicode="&#xe7;" horiz-adv-x="1024" d="M82 479q0 255 136 385q118 111 310 111q186 0 297 -74v-195h-20q-58 60 -136 105q-82 47 -133 47q-276 0 -276 -379q0 -385 272 -385q57 0 134 36q84 39 139 98h20v-183q-147 -70 -295 -70q-448 0 -448 504zM308 -389l11 117q64 -4 94 -4q161 0 161 75q0 39 -54 56 q-32 10 -103 11l52 177h134l-33 -107q171 -20 171 -147q0 -99 -101 -150q-79 -40 -188 -40q-82 0 -144 12z" />
<glyph unicode="&#xe8;" d="M82 465q0 240 126 380q120 132 310 132q177 0 291 -121q117 -124 117 -327v-11q0 -92 -64 -92h-599q0 -151 56 -239q64 -99 188 -99q202 0 352 198h21v-189q-132 -122 -381 -122q-187 0 -298 121q-119 130 -119 369zM263 538q14 -3 228 -3q225 0 258 6q3 156 -64 245 q-65 85 -177 85q-120 0 -185 -98q-60 -89 -60 -235zM299 1317q0 37 73 37q90 0 98 -53l75 -468h-68l-172 457q-6 16 -6 27z" />
<glyph unicode="&#xe9;" d="M82 465q0 240 126 380q120 132 310 132q177 0 291 -121q117 -124 117 -327v-11q0 -92 -64 -92h-599q0 -151 56 -239q64 -99 188 -99q202 0 352 198h21v-189q-132 -122 -381 -122q-187 0 -298 121q-119 130 -119 369zM263 538q14 -3 228 -3q225 0 258 6q3 156 -64 245 q-65 85 -177 85q-120 0 -185 -98q-60 -89 -60 -235zM475 1194l133 280h236l-220 -280h-149z" />
<glyph unicode="&#xea;" d="M82 465q0 240 126 380q120 132 310 132q177 0 291 -121q117 -124 117 -327v-11q0 -92 -64 -92h-599q0 -151 56 -239q64 -99 188 -99q202 0 352 198h21v-189q-132 -122 -381 -122q-187 0 -298 121q-119 130 -119 369zM258 1194l216 280h192l225 -280h-204l-110 170 l-113 -170h-206zM263 538q14 -3 228 -3q225 0 258 6q3 156 -64 245q-65 85 -177 85q-120 0 -185 -98q-60 -89 -60 -235z" />
<glyph unicode="&#xeb;" d="M82 465q0 240 126 380q120 132 310 132q177 0 291 -121q117 -124 117 -327v-11q0 -92 -64 -92h-599q0 -151 56 -239q64 -99 188 -99q202 0 352 198h21v-189q-132 -122 -381 -122q-187 0 -298 121q-119 130 -119 369zM263 538q14 -3 228 -3q225 0 258 6q3 156 -64 245 q-65 85 -177 85q-120 0 -185 -98q-60 -89 -60 -235zM294 1270v205h188v-205h-188zM667 1270v205h188v-205h-188z" />
<glyph unicode="&#xec;" horiz-adv-x="569" d="M-109 1317q0 37 73 37q90 0 98 -53l75 -468h-68l-172 457q-6 16 -6 27zM75 0v1062h180v-1062h-180z" />
<glyph unicode="&#xed;" horiz-adv-x="569" d="M189 1194l133 280h236l-220 -280h-149zM198 0v1062h180v-1062h-180z" />
<glyph unicode="&#xee;" horiz-adv-x="569" d="M-17 1194l216 280h192l225 -280h-204l-110 170l-113 -170h-206zM198 0v1062h180v-1062h-180z" />
<glyph unicode="&#xef;" horiz-adv-x="569" d="M9 1270v205h188v-205h-188zM198 0v1062h180v-1062h-180zM382 1270v205h188v-205h-188z" />
<glyph unicode="&#xf0;" d="M73 517q0 229 109 378q122 167 343 167q101 0 212 -59q-58 118 -142 213l-275 -127l-44 103l239 109q-97 90 -207 165h217q72 -54 125 -102l214 102l45 -102l-172 -83q320 -368 320 -760q0 -236 -126 -386q-135 -160 -367 -160q-255 0 -398 194q-93 126 -93 348zM257 512 q0 -164 69 -268q80 -122 237 -122q155 0 238 132q69 110 69 275q0 164 -73 271q-83 124 -240 124q-160 0 -237 -133q-63 -108 -63 -279z" />
<glyph unicode="&#xf1;" d="M102 0v964h38l65 -72q170 75 358 75q146 0 235 -90t89 -238v-639h-164v669q0 81 -42 131t-112 50q-63 0 -166 -37q-108 -40 -139 -80v-733h-162zM221 1219q-1 97 52 160q56 68 151 68q62 0 169 -54q59 -30 94 -30q61 0 73 87h130q-6 -228 -196 -228q-63 0 -166 56 q-67 36 -98 36q-78 0 -76 -95h-133z" />
<glyph unicode="&#xf2;" d="M82 475q0 238 122 368.5t342 130.5q219 0 342 -128q124 -131 124 -371q0 -236 -125 -372t-341 -136q-219 0 -341.5 135t-122.5 373zM260 473q0 -222 76 -312q65 -77 210 -77q142 0 207 75q79 91 79 314q0 215 -77 302q-66 76 -211 76q-142 0 -208 -76q-76 -88 -76 -302z M294 1317q0 37 73 37q90 0 98 -53l75 -468h-68l-172 457q-6 16 -6 27z" />
<glyph unicode="&#xf3;" d="M82 475q0 238 122 368.5t342 130.5q219 0 342 -128q124 -131 124 -371q0 -236 -125 -372t-341 -136q-219 0 -341.5 135t-122.5 373zM260 473q0 -222 76 -312q65 -77 210 -77q142 0 207 75q79 91 79 314q0 215 -77 302q-66 76 -211 76q-142 0 -208 -76q-76 -88 -76 -302z M470 1194l133 280h236l-220 -280h-149z" />
<glyph unicode="&#xf4;" d="M82 475q0 238 122 368.5t342 130.5q219 0 342 -128q124 -131 124 -371q0 -236 -125 -372t-341 -136q-219 0 -341.5 135t-122.5 373zM253 1194l216 280h192l225 -280h-204l-110 170l-113 -170h-206zM260 473q0 -222 76 -312q65 -77 210 -77q142 0 207 75q79 91 79 314 q0 215 -77 302q-66 76 -211 76q-142 0 -208 -76q-76 -88 -76 -302z" />
<glyph unicode="&#xf5;" d="M82 475q0 238 122 368.5t342 130.5q219 0 342 -128q124 -131 124 -371q0 -236 -125 -372t-341 -136q-219 0 -341.5 135t-122.5 373zM235 1219q-1 97 52 160q56 68 151 68q62 0 169 -54q59 -30 94 -30q61 0 73 87h130q-6 -228 -196 -228q-63 0 -166 56q-67 36 -98 36 q-78 0 -76 -95h-133zM260 473q0 -222 76 -312q65 -77 210 -77q142 0 207 75q79 91 79 314q0 215 -77 302q-66 76 -211 76q-142 0 -208 -76q-76 -88 -76 -302z" />
<glyph unicode="&#xf6;" d="M82 475q0 238 122 368.5t342 130.5q219 0 342 -128q124 -131 124 -371q0 -236 -125 -372t-341 -136q-219 0 -341.5 135t-122.5 373zM260 473q0 -222 76 -312q65 -77 210 -77q142 0 207 75q79 91 79 314q0 215 -77 302q-66 76 -211 76q-142 0 -208 -76q-76 -88 -76 -302z M289 1270v205h188v-205h-188zM662 1270v205h188v-205h-188z" />
<glyph unicode="&#xf7;" horiz-adv-x="1124" d="M78 639v168h968v-168h-968zM459 319v205h205v-205h-205zM459 922v205h205v-205h-205z" />
<glyph unicode="&#xf8;" horiz-adv-x="1251" d="M129 516q0 252 117 403q130 167 375 167q147 0 298 -87l99 128l96 -70l-107 -138q65 -89 86 -156q31 -97 31 -233q0 -301 -169 -441q-136 -113 -330 -113q-159 0 -281 80l-105 -135l-94 71l108 141q-59 68 -84 136q-40 109 -40 247zM314 531q0 -150 52 -251l452 587 q-91 70 -191 70q-160 0 -243 -128q-70 -109 -70 -278zM444 187q78 -63 176 -63q164 0 248 127q72 108 72 281q0 74 -12 133q-9 44 -35 105z" />
<glyph unicode="&#xf9;" d="M102 347v598h163v-630q0 -109 62 -169q56 -54 149 -54q113 0 187 73q53 52 53 130v650h162v-945h-37l-73 83q-140 -103 -324 -103q-342 0 -342 367zM300 1317q0 37 73 37q90 0 98 -53l75 -468h-68l-172 457q-6 16 -6 27z" />
<glyph unicode="&#xfa;" d="M102 347v598h163v-630q0 -109 62 -169q56 -54 149 -54q113 0 187 73q53 52 53 130v650h162v-945h-37l-73 83q-140 -103 -324 -103q-342 0 -342 367zM422 1194l133 280h236l-220 -280h-149z" />
<glyph unicode="&#xfb;" d="M102 347v598h163v-630q0 -109 62 -169q56 -54 149 -54q113 0 187 73q53 52 53 130v650h162v-945h-37l-73 83q-140 -103 -324 -103q-342 0 -342 367zM214 1194l216 280h192l225 -280h-204l-110 170l-113 -170h-206z" />
<glyph unicode="&#xfc;" d="M102 347v598h163v-630q0 -109 62 -169q56 -54 149 -54q113 0 187 73q53 52 53 130v650h162v-945h-37l-73 83q-140 -103 -324 -103q-342 0 -342 367zM250 1270v205h188v-205h-188zM623 1270v205h188v-205h-188z" />
<glyph unicode="&#xfd;" horiz-adv-x="1024" d="M61 932l5 12h184l245 -812h11l240 812h177l6 -13l-361 -964q-140 -377 -380 -377q-60 0 -93 22l20 190l21 5q46 -71 113 -71q58 0 111 52q54 56 54 123q0 70 -52 212zM440 1194l133 280h236l-220 -280h-149z" />
<glyph unicode="&#xfe;" d="M135 -407v1873h180v-516q72 76 128 102q73 34 164 34q286 0 397 -267q53 -128 53 -280q0 -351 -228 -493q-112 -70 -234 -70q-84 0 -154 33q-53 25 -126 101v-517h-180zM298 525q0 -161 60 -268q75 -133 224 -133q153 0 230 139q61 111 61 277q0 159 -61 269 q-75 136 -222 136q-148 0 -227 -144q-65 -118 -65 -276z" />
<glyph unicode="&#xff;" horiz-adv-x="1024" d="M61 932l5 12h184l245 -812h11l240 812h177l6 -13l-361 -964q-140 -377 -380 -377q-60 0 -93 22l20 190l21 5q46 -71 113 -71q58 0 111 52q54 56 54 123q0 70 -52 212zM263 1270v205h188v-205h-188zM636 1270v205h188v-205h-188z" />
<glyph unicode="&#x152;" horiz-adv-x="2048" d="M129 735q0 326 130 523q154 233 462 233q264 0 400 -223v198h831v-173h-650v-448h599v-172h-599v-500h681v-173h-862v212q-135 -237 -400 -237q-302 0 -456 232q-136 204 -136 528zM329 720q0 -231 79 -387q102 -202 312 -202q217 0 316 213q74 159 74 401q0 230 -79 387 q-102 202 -311 202q-118 0 -212 -76q-87 -70 -130 -186q-49 -132 -49 -352z" />
<glyph unicode="&#x153;" horiz-adv-x="1933" d="M82 518q0 371 237 502q119 66 265 66q276 0 394 -203q140 203 389 203q253 0 380 -182q112 -159 110 -421h-784q3 -153 82 -251q86 -108 234 -108q210 0 274 222l180 -26q-90 -344 -457 -344q-277 0 -408 199q-153 -199 -396 -199q-240 0 -373 154q-127 145 -127 388z M267 533q0 -186 71 -283q92 -126 239 -126q156 0 241 133q72 113 72 278t-72 275q-84 128 -241 128q-193 0 -271 -194q-39 -97 -39 -211zM1080 631h587q-11 136 -81 217q-77 90 -208 90t-212 -90q-76 -83 -86 -217z" />
<glyph unicode="&#x178;" horiz-adv-x="1366" d="M72 1306v31h198l262 -611h19l261 611h198v-25l-380 -682v-630h-178v614zM418 1556v205h188v-205h-188zM791 1556v205h188v-205h-188z" />
<glyph unicode="&#x2c6;" horiz-adv-x="682" d="M25 1194l216 280h192l225 -280h-204l-110 170l-113 -170h-206z" />
<glyph unicode="&#x2dc;" horiz-adv-x="682" d="M7 1219q-1 97 52 160q56 68 151 68q62 0 169 -54q59 -30 94 -30q61 0 73 87h130q-6 -228 -196 -228q-63 0 -166 56q-67 36 -98 36q-78 0 -76 -95h-133z" />
<glyph unicode="&#x2000;" horiz-adv-x="918" />
<glyph unicode="&#x2001;" horiz-adv-x="1836" />
<glyph unicode="&#x2002;" horiz-adv-x="918" />
<glyph unicode="&#x2003;" horiz-adv-x="1836" />
<glyph unicode="&#x2004;" horiz-adv-x="612" />
<glyph unicode="&#x2005;" horiz-adv-x="459" />
<glyph unicode="&#x2006;" horiz-adv-x="306" />
<glyph unicode="&#x2007;" horiz-adv-x="306" />
<glyph unicode="&#x2008;" horiz-adv-x="229" />
<glyph unicode="&#x2009;" horiz-adv-x="367" />
<glyph unicode="&#x200a;" horiz-adv-x="102" />
<glyph unicode="&#x2010;" horiz-adv-x="942" d="M123 539v143h696v-143h-696z" />
<glyph unicode="&#x2011;" horiz-adv-x="942" d="M123 539v143h696v-143h-696z" />
<glyph unicode="&#x2012;" horiz-adv-x="942" d="M123 539v143h696v-143h-696z" />
<glyph unicode="&#x2013;" d="M-4 458v145h1139v-145h-1139z" />
<glyph unicode="&#x2014;" horiz-adv-x="2048" d="M0 458v145h2048v-145h-2048z" />
<glyph unicode="&#x2018;" horiz-adv-x="455" d="M128 1011v165q0 133 32 194q42 80 133 121l44 -70q-105 -44 -110 -201h94v-209h-193z" />
<glyph unicode="&#x2019;" horiz-adv-x="455" d="M108 1072q104 42 110 200h-94v209h193v-165q0 -134 -31 -193q-43 -81 -134 -122z" />
<glyph unicode="&#x201a;" horiz-adv-x="455" d="M108 -200q104 42 110 200h-94v209h193v-165q0 -134 -31 -193q-43 -81 -134 -122z" />
<glyph unicode="&#x201c;" horiz-adv-x="682" d="M83 1011v165q0 133 32 194q42 80 133 121l44 -70q-105 -44 -110 -201h94v-209h-193zM393 1011v165q0 133 32 194q42 80 133 121l44 -70q-105 -44 -110 -201h94v-209h-193z" />
<glyph unicode="&#x201d;" horiz-adv-x="682" d="M71 1072q104 42 110 200h-94v209h193v-165q0 -134 -31 -193q-43 -81 -134 -122zM381 1072q104 42 110 200h-94v209h193v-165q0 -134 -31 -193q-43 -81 -134 -122z" />
<glyph unicode="&#x201e;" horiz-adv-x="682" d="M71 -200q104 42 110 200h-94v209h193v-165q0 -134 -31 -193q-43 -81 -134 -122zM381 -200q104 42 110 200h-94v209h193v-165q0 -134 -31 -193q-43 -81 -134 -122z" />
<glyph unicode="&#x2022;" horiz-adv-x="717" d="M109 718q0 106 73.5 179.5t179.5 73.5q107 0 180.5 -73t73.5 -180t-73.5 -180.5t-180.5 -73.5q-106 0 -179.5 74t-73.5 180z" />
<glyph unicode="&#x2026;" horiz-adv-x="2048" d="M239 0v205h205v-205h-205zM922 0v205h205v-205h-205zM1604 0v205h206v-205h-206z" />
<glyph unicode="&#x202f;" horiz-adv-x="367" />
<glyph unicode="&#x2039;" horiz-adv-x="682" d="M92 527l315 457h149l-265 -457l265 -455h-149z" />
<glyph unicode="&#x203a;" horiz-adv-x="682" d="M92 72l265 458l-265 454h149l304 -448l-304 -464h-149z" />
<glyph unicode="&#x205f;" horiz-adv-x="459" />
<glyph unicode="&#x2122;" horiz-adv-x="2048" d="M225 1345v121h666v-121h-266v-694h-136v694h-264zM982 651v815h200l206 -651l199 651h196v-815h-124v684l-210 -684h-123l-219 694v-694h-125z" />
<glyph unicode="&#xe000;" horiz-adv-x="945" d="M0 0v945h945v-945h-945z" />
</font>
</defs>
</svg>
